<svg xmlns="http://www.w3.org/2000/svg" fill="none" viewBox="0 0 150 150"><path fill="#fff" d="M56.743 112.5c-3.514 0-6.947-.701-10.206-2.089l-2.006-.844 25.245-56.976C73.842 43.43 83.065 37.5 93.271 37.5c3.514 0 6.947.7 10.205 2.09l1.993.842L80.224 97.41C76.158 106.57 66.935 112.5 56.716 112.5h.027Z"/><path fill="#fff" d="M105.161 6.36C95.563 2.143 85.424 0 75.028 0 45.238 0 18.266 17.624 6.304 44.886c-16.59 37.84.698 82.152 38.535 98.768C54.437 147.857 64.576 150 74.957 150c29.805 0 56.791-17.624 68.739-44.901 16.59-37.84-.698-82.151-38.535-98.739Zm25.761 93.234c-9.755 22.219-31.713 36.593-55.965 36.593-8.43 0-16.675-1.738-24.479-5.156-30.859-13.561-44.957-49.734-31.4-80.625 9.755-22.219 31.713-36.593 55.95-36.593 8.445 0 16.69 1.738 24.494 5.17 30.873 13.547 44.957 49.706 31.4 80.61Z"/></svg>